HIERARCHY
ROOT Root
{
  OFFSET 0.0 0.0 0.0
  CHANNELS 6 Xposition Yposition Zposition Zrotation Yrotation Xrotation
  JOINT Hips
  {
    OFFSET 0.0 100.0 0.0
    CHANNELS 6 Xposition Yposition Zposition Zrotation Yrotation Xrotation
    JOINT Spine1
    {
      OFFSET -0.013727 5.003763 -0.053727
      CHANNELS 3 Zrotation Yrotation Xrotation
      JOINT Spine2
      {
        OFFSET -0.0 7.125301 -0.029825
        CHANNELS 3 Zrotation Yrotation Xrotation
        JOINT Chest
        {
          OFFSET -1e-06 7.550063 -0.815971
          CHANNELS 3 Zrotation Yrotation Xrotation
          JOINT Neck1
          {
            OFFSET -0.181677 26.311295 -0.553348
            CHANNELS 3 Zrotation Yrotation Xrotation
            JOINT Neck2
            {
              OFFSET -3e-06 7.709397 2.302585
              CHANNELS 3 Zrotation Yrotation Xrotation
              JOINT Head
              {
                OFFSET -5e-06 6.128916 1.953709
                CHANNELS 3 Zrotation Yrotation Xrotation
                JOINT HeadEnd
                {
                  OFFSET 0.003598 16.065403 -1.835379
                  CHANNELS 3 Zrotation Yrotation Xrotation
                }
                JOINT Jaw
                {
                  OFFSET 0.002637 0.475592 3.094941
                  CHANNELS 3 Zrotation Yrotation Xrotation
                }
                JOINT LeftEye
                {
                  OFFSET 3.206381 5.380205 7.586883
                  CHANNELS 3 Zrotation Yrotation Xrotation
                }
                JOINT RightEye
                {
                  OFFSET -3.22244 5.361869 7.558234
                  CHANNELS 3 Zrotation Yrotation Xrotation
                }
              }
            }
          }
          JOINT LeftShoulder
          {
            OFFSET 1.621652 23.237164 5.113413
            CHANNELS 3 Zrotation Yrotation Xrotation
            JOINT LeftArm
            {
              OFFSET 14.919846 2e-06 -5.502326
              CHANNELS 3 Zrotation Yrotation Xrotation
              JOINT LeftForeArm
              {
                OFFSET 28.739307 0.0 -0.002588
                CHANNELS 3 Zrotation Yrotation Xrotation
                JOINT LeftHand
                {
                  OFFSET 27.093981 -1e-06 0.002609
                  CHANNELS 3 Zrotation Yrotation Xrotation
                  JOINT LeftHandThumb1
                  {
                    OFFSET 2.276482 -1.392045 3.191413
                    CHANNELS 3 Zrotation Yrotation Xrotation
                    JOINT LeftHandThumb2
                    {
                      OFFSET 4.012836 -1.828127 1.641654
                      CHANNELS 3 Zrotation Yrotation Xrotation
                      JOINT LeftHandThumb3
                      {
                        OFFSET 2.798515 0.0 -3e-06
                        CHANNELS 3 Zrotation Yrotation Xrotation
                        JOINT LeftHandThumbEnd
                        {
                          OFFSET 3.180793 -4e-06 4e-06
                          CHANNELS 3 Zrotation Yrotation Xrotation
                        }
                      }
                    }
                  }
                  JOINT LeftHandIndex1
                  {
                    OFFSET 3.247555 -0.531998 2.296169
                    CHANNELS 3 Zrotation Yrotation Xrotation
                    JOINT LeftHandIndex2
                    {
                      OFFSET 6.364578 0.01206 0.1786
                      CHANNELS 3 Zrotation Yrotation Xrotation
                      JOINT LeftHandIndex3
                      {
                        OFFSET 3.662364 0.0 0.0
                        CHANNELS 3 Zrotation Yrotation Xrotation
                        JOINT LeftHandIndex4
                        {
                          OFFSET 2.329242 4e-06 4e-06
                          CHANNELS 3 Zrotation Yrotation Xrotation
                          JOINT LeftHandIndexEnd
                          {
                            OFFSET 2.759615 -0.180537 -0.113024
                            CHANNELS 3 Zrotation Yrotation Xrotation
                          }
                        }
                      }
                    }
                  }
                  JOINT LeftHandMiddle1
                  {
                    OFFSET 3.163495 0.240981 1.000332
                    CHANNELS 3 Zrotation Yrotation Xrotation
                    JOINT LeftHandMiddle2
                    {
                      OFFSET 6.19078 -0.259278 -1.002548
                      CHANNELS 3 Zrotation Yrotation Xrotation
                      JOINT LeftHandMiddle3
                      {
                        OFFSET 4.35652 -4e-06 -1e-06
                        CHANNELS 3 Zrotation Yrotation Xrotation
                        JOINT LeftHandMiddle4
                        {
                          OFFSET 2.996877 -8e-06 0.0
                          CHANNELS 3 Zrotation Yrotation Xrotation
                          JOINT LeftHandMiddleEnd
                          {
                            OFFSET 2.304287 -0.294569 -0.031741
                            CHANNELS 3 Zrotation Yrotation Xrotation
                          }
                        }
                      }
                    }
                  }
                  JOINT LeftHandRing1
                  {
                    OFFSET 2.882643 -0.053652 -0.322543
                    CHANNELS 3 Zrotation Yrotation Xrotation
                    JOINT LeftHandRing2
                    {
                      OFFSET 5.854541 -0.486202 -1.373841
                      CHANNELS 3 Zrotation Yrotation Xrotation
                      JOINT LeftHandRing3
                      {
                        OFFSET 4.350578 0.0 3e-06
                        CHANNELS 3 Zrotation Yrotation Xrotation
                        JOINT LeftHandRing4
                        {
                          OFFSET 2.651321 7e-06 2e-06
                          CHANNELS 3 Zrotation Yrotation Xrotation
                          JOINT LeftHandRingEnd
                          {
                            OFFSET 1.936105 0.077687 -7.1e-05
                            CHANNELS 3 Zrotation Yrotation Xrotation
                          }
                        }
                      }
                    }
                  }
                  JOINT LeftHandPinky1
                  {
                    OFFSET 2.8655 -0.310005 -1.600378
                    CHANNELS 3 Zrotation Yrotation Xrotation
                    JOINT LeftHandPinky2
                    {
                      OFFSET 5.087849 -1.331141 -1.77123
                      CHANNELS 3 Zrotation Yrotation Xrotation
                      JOINT LeftHandPinky3
                      {
                        OFFSET 3.070974 4e-06 0.0
                        CHANNELS 3 Zrotation Yrotation Xrotation
                        JOINT LeftHandPinky4
                        {
                          OFFSET 1.549672 0.0 1e-06
                          CHANNELS 3 Zrotation Yrotation Xrotation
                          JOINT LeftHandPinkyEnd
                          {
                            OFFSET 1.944893 -0.157802 0.057219
                            CHANNELS 3 Zrotation Yrotation Xrotation
                          }
                        }
                      }
                    }
                  }
                }
              }
            }
          }
          JOINT RightShoulder
          {
            OFFSET -1.380118 23.180309 5.214158
            CHANNELS 3 Zrotation Yrotation Xrotation
            JOINT RightArm
            {
              OFFSET -15.037196 1.2e-05 -5.545604
              CHANNELS 3 Zrotation Yrotation Xrotation
              JOINT RightForeArm
              {
                OFFSET -28.736639 2e-06 -0.002597
                CHANNELS 3 Zrotation Yrotation Xrotation
                JOINT RightHand
                {
                  OFFSET -27.133619 -0.0 0.002613
                  CHANNELS 3 Zrotation Yrotation Xrotation
                  JOINT RightHandThumb1
                  {
                    OFFSET -2.274032 -1.383988 3.163127
                    CHANNELS 3 Zrotation Yrotation Xrotation
                    JOINT RightHandThumb2
                    {
                      OFFSET -4.011429 -1.827466 1.640914
                      CHANNELS 3 Zrotation Yrotation Xrotation
                      JOINT RightHandThumb3
                      {
                        OFFSET -2.794935 -4e-06 -3e-06
                        CHANNELS 3 Zrotation Yrotation Xrotation
                        JOINT RightHandThumbEnd
                        {
                          OFFSET -3.183852 4e-06 1e-06
                          CHANNELS 3 Zrotation Yrotation Xrotation
                        }
                      }
                    }
                  }
                  JOINT RightHandIndex1
                  {
                    OFFSET -3.253266 -0.520057 2.282866
                    CHANNELS 3 Zrotation Yrotation Xrotation
                    JOINT RightHandIndex2
                    {
                      OFFSET -6.341917 0.012471 0.178266
                      CHANNELS 3 Zrotation Yrotation Xrotation
                      JOINT RightHandIndex3
                      {
                        OFFSET -3.654871 -8e-06 -0.0
                        CHANNELS 3 Zrotation Yrotation Xrotation
                        JOINT RightHandIndex4
                        {
                          OFFSET -2.327586 0.0 1e-06
                          CHANNELS 3 Zrotation Yrotation Xrotation
                          JOINT RightHandIndexEnd
                          {
                            OFFSET -2.76179 -0.180656 -0.113078
                            CHANNELS 3 Zrotation Yrotation Xrotation
                          }
                        }
                      }
                    }
                  }
                  JOINT RightHandMiddle1
                  {
                    OFFSET -3.168106 0.246593 1.00103
                    CHANNELS 3 Zrotation Yrotation Xrotation
                    JOINT RightHandMiddle2
                    {
                      OFFSET -6.180828 -0.258836 -1.000895
                      CHANNELS 3 Zrotation Yrotation Xrotation
                      JOINT RightHandMiddle3
                      {
                        OFFSET -4.348901 0.0 -0.0
                        CHANNELS 3 Zrotation Yrotation Xrotation
                        JOINT RightHandMiddle4
                        {
                          OFFSET -3.00024 -4e-06 -2e-06
                          CHANNELS 3 Zrotation Yrotation Xrotation
                          JOINT RightHandMiddleEnd
                          {
                            OFFSET -2.30252 -0.29437 -0.031706
                            CHANNELS 3 Zrotation Yrotation Xrotation
                          }
                        }
                      }
                    }
                  }
                  JOINT RightHandRing1
                  {
                    OFFSET -2.88569 -0.067952 -0.308858
                    CHANNELS 3 Zrotation Yrotation Xrotation
                    JOINT RightHandRing2
                    {
                      OFFSET -5.854198 -0.48613 -1.373731
                      CHANNELS 3 Zrotation Yrotation Xrotation
                      JOINT RightHandRing3
                      {
                        OFFSET -4.33881 -4e-06 -0.0
                        CHANNELS 3 Zrotation Yrotation Xrotation
                        JOINT RightHandRing4
                        {
                          OFFSET -2.654903 -4e-06 4e-06
                          CHANNELS 3 Zrotation Yrotation Xrotation
                          JOINT RightHandRingEnd
                          {
                            OFFSET -1.933568 0.077527 -5.2e-05
                            CHANNELS 3 Zrotation Yrotation Xrotation
                          }
                        }
                      }
                    }
                  }
                  JOINT RightHandPinky1
                  {
                    OFFSET -2.866425 -0.342796 -1.584145
                    CHANNELS 3 Zrotation Yrotation Xrotation
                    JOINT RightHandPinky2
                    {
                      OFFSET -5.091371 -1.332055 -1.772385
                      CHANNELS 3 Zrotation Yrotation Xrotation
                      JOINT RightHandPinky3
                      {
                        OFFSET -3.062664 -4e-06 1e-06
                        CHANNELS 3 Zrotation Yrotation Xrotation
                        JOINT RightHandPinky4
                        {
                          OFFSET -1.546529 4e-06 -2e-06
                          CHANNELS 3 Zrotation Yrotation Xrotation
                          JOINT RightHandPinkyEnd
                          {
                            OFFSET -1.945119 -0.157718 0.057211
                            CHANNELS 3 Zrotation Yrotation Xrotation
                          }
                        }
                      }
                    }
                  }
                }
              }
            }
          }
        }
      }
    }
    JOINT LeftLeg
    {
      OFFSET 10.043214 -8.434526 2.595655
      CHANNELS 3 Zrotation Yrotation Xrotation
      JOINT LeftShin
      {
        OFFSET -1e-06 -43.221752 -0.802913
        CHANNELS 3 Zrotation Yrotation Xrotation
        JOINT LeftFoot
        {
          OFFSET 1e-06 -42.155094 -3.481523
          CHANNELS 3 Zrotation Yrotation Xrotation
          JOINT LeftToeBase
          {
            OFFSET 0.0 -5.059472 13.231529
            CHANNELS 3 Zrotation Yrotation Xrotation
            JOINT LeftToeEnd
            {
              OFFSET -0.009607 -1.647619 6.513017
              CHANNELS 3 Zrotation Yrotation Xrotation
            }
          }
        }
      }
    }
    JOINT RightLeg
    {
      OFFSET -10.047278 -8.29526 2.620317
      CHANNELS 3 Zrotation Yrotation Xrotation
      JOINT RightShin
      {
        OFFSET 1e-06 -43.362206 -0.805556
        CHANNELS 3 Zrotation Yrotation Xrotation
        JOINT RightFoot
        {
          OFFSET 2e-06 -42.117393 -3.478398
          CHANNELS 3 Zrotation Yrotation Xrotation
          JOINT RightToeBase
          {
            OFFSET -0.0 -5.079609 13.284196
            CHANNELS 3 Zrotation Yrotation Xrotation
            JOINT RightToeEnd
            {
              OFFSET 0.009532 -1.634378 6.460591
              CHANNELS 3 Zrotation Yrotation Xrotation
            }
          }
        }
      }
    }
  }
}
MOTION
Frames: 4
Frame Time: 0.03333333333333333
0.0 0.0 0.0 0.0 -0.0 0.0 27.938711 95.890701 476.569611 -2.739964 -1.311547 2.174272 3.883786 0.477247 -0.510243 -0.041193 2.588772 -4.924982 0.789077 0.625515 10.045873 -3.663007 3.986373 1.410579 -0.547837 0.238023 -3.603563 1.500793 -1.693758 -10.167489 7.7e-05 -2.2e-05 6e-06 0.015365 0.125903 0.070061 0.667696 -3.63094 -10.68506 -0.6479 3.880786 -10.690859 -9.113953 -1.884332 13.120029 -71.489311 6.625186 14.138777 0.065098 -24.086369 0.193619 -7.373165 7.111523 -10.643508 -5.882111 9.861293 0.702591 -10.936878 -0.360574 7.15621 0.0 8.774831 0.0 -16.294689 18.736477 6.385123 -1.844033 2.498506 -2.507279 -10.163607 4.678948 4.621111 -20.97604 -2e-06 4e-06 -21.226301 2.4517 -3.594001 1e-06 -5e-06 -1e-06 -1.362682 2.2408 -0.746323 -21.33493 0.584911 3.008326 -13.821225 -2e-06 3e-06 -23.887188 -0.249078 -0.839483 -60.924316 2.903706 -0.965733 -0.294025 1.679688 0.833256 -14.218219 0.093215 1.300583 -34.21207 -0.287562 0.967172 -20.033228 0.964538 1.212845 -2e-06 0.0 -0.0 -3.440391 0.788234 0.501656 -15.9282 -3.167312 2.99971 -6.338832 -1e-06 2e-06 -18.123459 3.648187 -4.905673 -6e-06 1e-06 -2e-06 15.80207 17.501562 15.246761 40.017559 26.078417 8.195996 0.239955 49.220909 0.344779 0.82046 -7.265113 -5.349858 2.243543 -5.255037 -3.180159 14.282889 -0.826595 6.9525 -1e-06 -12.690609 2e-06 15.934888 -17.852316 2.531949 1.665667 -1.955923 -2.878299 4.727799 -4.170588 4.993922 11.020526 3e-06 -4e-06 12.109055 -3.735715 -2.866788 -0.0 2e-06 -1e-06 1.291987 -1.92855 -1.498089 14.800129 0.567466 3.865604 14.242576 -1.341737 -6.660661 19.631969 0.143927 -0.648249 49.520149 -1.048913 -6.621583 0.353028 -1.511151 -0.031941 20.222794 3.684311 2.316627 18.787275 5e-06 -4e-06 10.75163 -0.479869 1.397904 0.0 1e-06 1e-06 3.273806 0.305947 -0.580113 21.486814 11.830379 2.266129 8.162928 2e-06 -3e-06 18.399084 -3.798984 -4.94058 3e-06 -0.0 -1e-06 -0.577155 11.722166 -31.600882 -0.041427 0.235629 -0.481013 -1.610155 1.048172 2.597023 1.587923 -2.062037 -5.534128 0.0 -1e-06 4e-06 4.937171 -2.00719 14.313859 -0.091505 -0.175291 3.253167 -0.230875 1.870993 -14.661094 -1.41124 0.778722 -3.645899 -0.0 0.0 -1e-06 
0.0 0.0 0.0 0.0 -0.0 0.0 28.550732 94.954834 481.197845 -2.48584 -1.47535 2.512957 3.471946 0.53801 -0.744533 -0.034487 2.593131 -5.053354 0.849589 0.58078 10.1492 -4.057286 4.104579 1.135181 -0.458342 0.172051 -3.56427 1.473076 -1.49004 -9.940681 7.7e-05 -2.3e-05 6e-06 0.008245 0.081743 0.055693 0.662535 -3.668267 -10.669154 -0.657587 3.83011 -10.672789 -9.953977 -1.558537 12.815984 -70.977943 6.96147 12.995152 -0.071839 -24.064957 0.233567 -7.005077 6.719588 -11.210808 -5.882108 9.86129 0.70259 -10.936875 -0.360576 7.156207 1e-06 8.774828 -2e-06 -16.339231 18.607338 6.268635 -1.844033 2.498504 -2.507278 -10.163604 4.678947 4.621109 -20.97603 -3e-06 3e-06 -21.226295 2.4517 -3.594001 1e-06 -5e-06 -1e-06 -1.362682 2.240799 -0.746323 -21.334921 0.584909 3.008324 -13.821217 -3e-06 3e-06 -23.887178 -0.249078 -0.839482 -61.035931 2.761903 -1.025964 -0.294025 1.679688 0.833256 -14.218214 0.093215 1.300581 -34.212063 -0.287562 0.967172 -20.033224 0.964537 1.212844 -1e-06 1e-06 0.0 -3.440389 0.788233 0.501656 -15.928192 -3.167312 2.999708 -6.338829 -1e-06 1e-06 -18.123447 3.648185 -4.905671 -6e-06 0.0 -2e-06 16.76156 17.455168 15.30973 38.759319 25.960205 7.71976 0.18205 51.229721 0.547652 0.471832 -6.759524 -6.836518 2.243541 -5.255036 -3.180156 14.282894 -0.826597 6.952503 -3e-06 -12.690607 4e-06 15.873044 -17.86587 2.535153 1.665667 -1.955921 -2.878302 4.727799 -4.170588 4.993926 11.020528 2e-06 -1e-06 12.109053 -3.735717 -2.866785 0.0 -1e-06 -2e-06 1.291986 -1.928549 -1.498091 14.800129 0.567467 3.865607 14.242571 -1.341734 -6.660661 19.631971 0.143928 -0.648246 49.41729 -1.113806 -6.657053 0.353028 -1.51115 -0.03194 20.222794 3.68431 2.316628 18.787273 5e-06 -1e-06 10.751629 -0.479868 1.397905 0.0 2e-06 0.0 3.273808 0.305948 -0.58011 21.486816 11.830376 2.266129 8.162928 2e-06 -0.0 18.399084 -3.798985 -4.940576 3e-06 0.0 0.0 -1.480508 11.009526 -32.761681 -0.016799 0.147563 -0.014037 -3.312634 2.681289 2.169081 1.588592 -2.07401 -5.843405 0.0 0.0 4e-06 3.706108 -2.810722 15.962381 -0.136581 -0.049821 5.560191 0.202843 3.340332 -15.023503 -1.398921 0.787254 -5.598397 -0.0 0.0 -1e-06 
0.0 0.0 0.0 0.0 -0.0 0.0 29.294916 94.311462 486.020264 -0.886124 -1.687179 3.02018 2.153003 0.555437 -1.381377 -0.164547 2.697598 -5.329149 0.457031 0.547822 10.318639 -4.107862 4.152547 0.877484 -0.43875 0.425421 -3.542784 1.528313 -1.579702 -9.107408 7.7e-05 -2.3e-05 6e-06 0.013723 0.076484 0.057439 0.6663 -3.681487 -10.695057 -0.649441 3.833847 -10.696577 -11.202488 -1.330528 12.388306 -69.845573 7.115648 12.111213 -0.06557 -23.653528 0.189497 -6.282844 6.360022 -11.576569 -5.882107 9.861286 0.70259 -10.936873 -0.360575 7.156205 -0.0 8.774824 -1e-06 -16.33898 18.662273 6.407522 -1.844033 2.498505 -2.507277 -10.163603 4.678946 4.621108 -20.97603 -2e-06 3e-06 -21.22629 2.451698 -3.594 1e-06 -6e-06 0.0 -1.362682 2.240799 -0.746323 -21.334917 0.584911 3.008323 -13.821213 -3e-06 2e-06 -23.887175 -0.249078 -0.839482 -61.222816 2.779147 -1.09537 -0.294025 1.679688 0.833256 -14.218212 0.093215 1.300581 -34.212055 -0.287563 0.967171 -20.033218 0.964537 1.212844 -1e-06 -0.0 0.0 -3.440389 0.788234 0.501655 -15.928189 -3.16731 2.999707 -6.338828 -1e-06 1e-06 -18.123453 3.648183 -4.90567 -6e-06 0.0 -2e-06 18.31111 17.193144 15.459814 37.997307 25.243382 8.05747 -0.042669 51.822456 0.492396 0.268695 -6.301796 -8.064538 2.243541 -5.255037 -3.180158 14.282894 -0.826596 6.952503 -2e-06 -12.690605 1e-06 15.858284 -17.871973 2.575448 1.665665 -1.955922 -2.878299 4.727798 -4.170587 4.993925 11.020526 3e-06 -1e-06 12.109053 -3.735714 -2.866783 0.0 1e-06 -1e-06 1.291987 -1.92855 -1.498087 14.800129 0.567469 3.865604 14.242573 -1.341735 -6.660657 19.631969 0.143927 -0.648247 49.549149 -1.167953 -6.679105 0.353028 -1.511149 -0.03194 20.222794 3.684312 2.316633 18.787273 3e-06 1e-06 10.751629 -0.47987 1.397907 1e-06 2e-06 0.0 3.273809 0.305947 -0.580111 21.486813 11.830373 2.266131 8.162927 1e-06 0.0 18.39908 -3.798983 -4.940574 4e-06 1e-06 0.0 -3.309666 9.697019 -33.236576 -0.057929 0.076834 4.124943 -1.686844 2.669302 4.645216 1.705892 -2.094487 -6.524334 0.0 0.0 3e-06 0.802 -3.430638 16.805714 -0.120296 0.17422 9.31085 0.604549 4.809918 -13.713234 -1.412628 0.828625 -9.38621 0.0 -0.0 -1e-06 
0.0 0.0 0.0 0.0 -0.0 0.0 30.041004 94.026787 490.981781 2.094243 -1.811449 3.748967 0.021673 0.422503 -2.268975 -0.499861 2.840908 -5.691232 -0.602886 0.613117 10.426491 -3.753792 3.835202 0.529655 -0.214845 0.957219 -3.61266 1.519443 -1.554752 -8.323874 7.7e-05 -2.3e-05 6e-06 0.02086 0.038033 0.043976 0.649264 -3.711844 -10.651867 -0.618137 3.789594 -10.663611 -12.328312 -1.508642 11.832104 -68.538139 6.952838 11.67233 0.133234 -22.354061 0.11217 -5.548324 5.963778 -12.134582 -5.882105 9.861288 0.70259 -10.936872 -0.360576 7.156206 1e-06 8.774827 -2e-06 -16.407141 18.457394 6.479879 -1.844032 2.498505 -2.507277 -10.163597 4.678945 4.621107 -20.976021 -4e-06 3e-06 -21.226282 2.451697 -3.594 1e-06 -7e-06 -0.0 -1.362681 2.240799 -0.746323 -21.334911 0.584909 3.008323 -13.821211 -2e-06 2e-06 -23.887163 -0.249078 -0.839483 -61.39476 2.761256 -0.95394 -0.294025 1.679688 0.833256 -14.218207 0.093216 1.30058 -34.212048 -0.287564 0.967171 -20.033211 0.964536 1.212844 -1e-06 -0.0 -0.0 -3.440388 0.788234 0.501656 -15.928185 -3.167311 2.999708 -6.338826 -1e-06 1e-06 -18.123444 3.648184 -4.905671 -6e-06 0.0 -1e-06 20.443192 16.536274 15.60892 37.757259 24.267021 8.802533 0.207678 50.79353 0.720825 -0.045114 -6.136045 -8.471032 2.243543 -5.255038 -3.180156 14.282886 -0.826594 6.952497 1e-06 -12.690601 -1e-06 15.74967 -17.744785 2.598511 1.665668 -1.955923 -2.878296 4.727798 -4.170587 4.993921 11.02052 1e-06 -2e-06 12.109052 -3.735717 -2.866786 -1e-06 0.0 -1e-06 1.291985 -1.92855 -1.498089 14.800125 0.567466 3.865606 14.242571 -1.341739 -6.660658 19.631966 0.143925 -0.648248 49.509811 -1.043438 -6.583011 0.35303 -1.511151 -0.031941 20.222786 3.684307 2.316628 18.78727 3e-06 -4e-06 10.751625 -0.479869 1.397904 1e-06 1e-06 1e-06 3.273806 0.305946 -0.58011 21.486809 11.830369 2.266132 8.162926 1e-06 -1e-06 18.399076 -3.798986 -4.940578 3e-06 1e-06 0.0 -6.216751 7.632416 -34.464729 -0.008382 0.103501 9.516093 1.57589 2.332288 11.808379 1.806692 -2.005569 -5.633801 -0.0 -0.0 2e-06 -3.791398 -4.197104 16.017 -0.144939 0.398759 15.506992 0.79128 6.830868 -10.859657 -1.459617 0.843056 -16.899538 0.0 -0.0 -1e-06 
